<svg xmlns="http://www.w3.org/2000/svg" width="860" height="360" viewBox="0 0 860 360" role="img" aria-label="Who closed each incident">
<style>text{font-family:-apple-system,'Segoe UI',Helvetica,Arial,sans-serif}</style>
<rect width="860" height="360" rx="12" fill="#0b1b33"/>
<text x="24" y="34" font-size="17" font-weight="700" fill="#ffffff">Who closed each incident</text>
<text x="24" y="56" font-size="12.5" fill="#8fb3dd">Synthetic replay, incidents per month</text>
<line x1="60" x2="836" y1="302.0" y2="302.0" stroke="#24406a"/>
<text x="52" y="306.0" font-size="11" fill="#8fb3dd" text-anchor="end">0</text>
<line x1="60" x2="836" y1="247.5" y2="247.5" stroke="#24406a"/>
<text x="52" y="251.5" font-size="11" fill="#8fb3dd" text-anchor="end">80</text>
<line x1="60" x2="836" y1="193.0" y2="193.0" stroke="#24406a"/>
<text x="52" y="197.0" font-size="11" fill="#8fb3dd" text-anchor="end">160</text>
<line x1="60" x2="836" y1="138.5" y2="138.5" stroke="#24406a"/>
<text x="52" y="142.5" font-size="11" fill="#8fb3dd" text-anchor="end">240</text>
<line x1="60" x2="836" y1="84.0" y2="84.0" stroke="#24406a"/>
<text x="52" y="88.0" font-size="11" fill="#8fb3dd" text-anchor="end">320</text>
<rect x="779" y="24" width="12" height="12" rx="3" fill="#d95926"/><text x="796" y="34" font-size="12" fill="#c3c2b7">Agent</text>
<rect x="701" y="24" width="12" height="12" rx="3" fill="#3987e5"/><text x="718" y="34" font-size="12" fill="#c3c2b7">Engineer</text>
<path d="M97.7,302.0 V140.5 Q97.7,136.5 101.7,136.5 H119.7 Q123.7,136.5 123.7,140.5 V302.0 Z" fill="#3987e5"><title>Mar · Engineer: 243</title></path>
<path d="M125.7,302.0 V302.0 Q125.7,302.0 125.7,302.0 H151.7 Q151.7,302.0 151.7,302.0 V302.0 Z" fill="#d95926"><title>Mar · Agent: 0</title></path>
<text x="124.7" y="320.0" font-size="11" fill="#c3c2b7" text-anchor="middle">Mar</text>
<path d="M227.0,302.0 V135.7 Q227.0,131.7 231.0,131.7 H249.0 Q253.0,131.7 253.0,135.7 V302.0 Z" fill="#3987e5"><title>Apr · Engineer: 250</title></path>
<path d="M255.0,302.0 V302.0 Q255.0,302.0 255.0,302.0 H281.0 Q281.0,302.0 281.0,302.0 V302.0 Z" fill="#d95926"><title>Apr · Agent: 0</title></path>
<text x="254.0" y="320.0" font-size="11" fill="#c3c2b7" text-anchor="middle">Apr</text>
<path d="M356.3,302.0 V291.0 Q356.3,287.0 360.3,287.0 H378.3 Q382.3,287.0 382.3,291.0 V302.0 Z" fill="#3987e5"><title>May · Engineer: 22</title></path>
<path d="M384.3,302.0 V160.2 Q384.3,156.2 388.3,156.2 H406.3 Q410.3,156.2 410.3,160.2 V302.0 Z" fill="#d95926"><title>May · Agent: 214</title></path>
<text x="383.3" y="320.0" font-size="11" fill="#c3c2b7" text-anchor="middle">May</text>
<path d="M485.7,302.0 V281.5 Q485.7,277.5 489.7,277.5 H507.7 Q511.7,277.5 511.7,281.5 V302.0 Z" fill="#3987e5"><title>Jun · Engineer: 36</title></path>
<path d="M513.7,302.0 V165.7 Q513.7,161.7 517.7,161.7 H535.7 Q539.7,161.7 539.7,165.7 V302.0 Z" fill="#d95926"><title>Jun · Agent: 206</title></path>
<text x="512.7" y="320.0" font-size="11" fill="#c3c2b7" text-anchor="middle">Jun</text>
<path d="M615.0,302.0 V280.8 Q615.0,276.8 619.0,276.8 H637.0 Q641.0,276.8 641.0,280.8 V302.0 Z" fill="#3987e5"><title>Jul · Engineer: 37</title></path>
<path d="M643.0,302.0 V162.3 Q643.0,158.3 647.0,158.3 H665.0 Q669.0,158.3 669.0,162.3 V302.0 Z" fill="#d95926"><title>Jul · Agent: 211</title></path>
<text x="642.0" y="320.0" font-size="11" fill="#c3c2b7" text-anchor="middle">Jul</text>
<path d="M744.3,302.0 V284.2 Q744.3,280.2 748.3,280.2 H766.3 Q770.3,280.2 770.3,284.2 V302.0 Z" fill="#3987e5"><title>Aug · Engineer: 32</title></path>
<path d="M772.3,302.0 V161.6 Q772.3,157.6 776.3,157.6 H794.3 Q798.3,157.6 798.3,161.6 V302.0 Z" fill="#d95926"><title>Aug · Agent: 212</title></path>
<text x="771.3" y="320.0" font-size="11" fill="#c3c2b7" text-anchor="middle">Aug</text>
</svg>