<svg xmlns="http://www.w3.org/2000/svg" width="860" height="360" viewBox="0 0 860 360" role="img" aria-label="Seconds from detection to sessions revoked">
<style>text{font-family:-apple-system,'Segoe UI',Helvetica,Arial,sans-serif}</style>
<rect width="860" height="360" rx="12" fill="#0b1b33"/>
<text x="24" y="34" font-size="17" font-weight="700" fill="#ffffff">Seconds from detection to sessions revoked</text>
<text x="24" y="56" font-size="12.5" fill="#8fb3dd">400 synthetic alerts · median 1.1s · p95 1.5s · 98% under 2 seconds</text>
<line x1="60" x2="836" y1="302.0" y2="302.0" stroke="#24406a" stroke-width="1"/>
<text x="52" y="306.0" font-size="11" fill="#8fb3dd" text-anchor="end">0</text>
<line x1="60" x2="836" y1="246.5" y2="246.5" stroke="#24406a" stroke-width="1"/>
<text x="52" y="250.5" font-size="11" fill="#8fb3dd" text-anchor="end">50</text>
<line x1="60" x2="836" y1="191.0" y2="191.0" stroke="#24406a" stroke-width="1"/>
<text x="52" y="195.0" font-size="11" fill="#8fb3dd" text-anchor="end">100</text>
<line x1="60" x2="836" y1="135.5" y2="135.5" stroke="#24406a" stroke-width="1"/>
<text x="52" y="139.5" font-size="11" fill="#8fb3dd" text-anchor="end">150</text>
<line x1="60" x2="836" y1="80.0" y2="80.0" stroke="#24406a" stroke-width="1"/>
<text x="52" y="84.0" font-size="11" fill="#8fb3dd" text-anchor="end">200</text>
<path d="M80.5,302.0 V302.0 Q80.5,302.0 80.5,302.0 H136.5 Q136.5,302.0 136.5,302.0 V302.0 Z" fill="#3987e5"><title>&lt;0.5s: 0</title></path>
<text x="108.5" y="296.0" font-size="11.5" font-weight="600" fill="#ffffff" text-anchor="middle">0</text>
<text x="108.5" y="320.0" font-size="11" fill="#c3c2b7" text-anchor="middle">&lt;0.5s</text>
<path d="M177.5,302.0 V276.0 Q177.5,272.0 181.5,272.0 H229.5 Q233.5,272.0 233.5,276.0 V302.0 Z" fill="#3987e5"><title>0.5–0.75: 27</title></path>
<text x="205.5" y="266.0" font-size="11.5" font-weight="600" fill="#ffffff" text-anchor="middle">27</text>
<text x="205.5" y="320.0" font-size="11" fill="#c3c2b7" text-anchor="middle">0.5–0.75</text>
<path d="M274.5,302.0 V196.1 Q274.5,192.1 278.5,192.1 H326.5 Q330.5,192.1 330.5,196.1 V302.0 Z" fill="#3987e5"><title>0.75–1: 99</title></path>
<text x="302.5" y="186.1" font-size="11.5" font-weight="600" fill="#ffffff" text-anchor="middle">99</text>
<text x="302.5" y="320.0" font-size="11" fill="#c3c2b7" text-anchor="middle">0.75–1</text>
<path d="M371.5,302.0 V100.7 Q371.5,96.7 375.5,96.7 H423.5 Q427.5,96.7 427.5,100.7 V302.0 Z" fill="#3987e5"><title>1–1.25: 185</title></path>
<text x="399.5" y="90.7" font-size="11.5" font-weight="600" fill="#ffffff" text-anchor="middle">185</text>
<text x="399.5" y="320.0" font-size="11" fill="#c3c2b7" text-anchor="middle">1–1.25</text>
<path d="M468.5,302.0 V230.5 Q468.5,226.5 472.5,226.5 H520.5 Q524.5,226.5 524.5,230.5 V302.0 Z" fill="#3987e5"><title>1.25–1.5: 68</title></path>
<text x="496.5" y="220.5" font-size="11.5" font-weight="600" fill="#ffffff" text-anchor="middle">68</text>
<text x="496.5" y="320.0" font-size="11" fill="#c3c2b7" text-anchor="middle">1.25–1.5</text>
<path d="M565.5,302.0 V292.7 Q565.5,288.7 569.5,288.7 H617.5 Q621.5,288.7 621.5,292.7 V302.0 Z" fill="#3987e5"><title>1.5–1.75: 12</title></path>
<text x="593.5" y="282.7" font-size="11.5" font-weight="600" fill="#ffffff" text-anchor="middle">12</text>
<text x="593.5" y="320.0" font-size="11" fill="#c3c2b7" text-anchor="middle">1.5–1.75</text>
<path d="M662.5,302.0 V301.4 Q662.5,300.9 663.1,300.9 H717.9 Q718.5,300.9 718.5,301.4 V302.0 Z" fill="#3987e5"><title>1.75–2: 1</title></path>
<text x="690.5" y="294.9" font-size="11.5" font-weight="600" fill="#ffffff" text-anchor="middle">1</text>
<text x="690.5" y="320.0" font-size="11" fill="#c3c2b7" text-anchor="middle">1.75–2</text>
<path d="M759.5,302.0 V297.1 Q759.5,293.1 763.5,293.1 H811.5 Q815.5,293.1 815.5,297.1 V302.0 Z" fill="#d95926"><title>2s+: 8</title></path>
<text x="787.5" y="287.1" font-size="11.5" font-weight="600" fill="#ffffff" text-anchor="middle">8</text>
<text x="787.5" y="320.0" font-size="11" fill="#c3c2b7" text-anchor="middle">2s+</text>
</svg>